<svg version="1.1" id="Layer_1" xmlns="http://www.w3.org/2000/svg" xmlns:xlink="http://www.w3.org/1999/xlink" x="0px" y="0px"
	 width="100%" viewBox="0 0 500 500" enable-background="new 0 0 500 500" xml:space="preserve">
<path fill="#008B8B" opacity="1.000000" stroke="none" 
	d="
M281.000000,501.000000 
	C187.333359,501.000000 94.166710,501.000000 1.000050,501.000000 
	C1.000033,334.333405 1.000033,167.666794 1.000017,1.000139 
	C167.666565,1.000093 334.333130,1.000093 500.999756,1.000046 
	C500.999847,167.666519 500.999847,334.333038 500.999939,500.999786 
	C427.833344,501.000000 354.666656,501.000000 281.000000,501.000000 
M331.211273,447.876709 
	C340.895264,447.092041 350.409637,445.559174 359.003235,440.670197 
	C378.918060,429.340332 386.709442,411.147705 386.753113,389.308105 
	C386.937378,297.149780 387.017334,204.990311 386.739014,112.832458 
	C386.630096,76.769180 364.668091,54.140141 329.662689,53.962482 
	C261.337067,53.615723 193.008530,53.830410 124.681221,53.853046 
	C117.626122,53.855385 115.107788,56.473255 115.107010,63.571827 
	C115.093323,188.227722 115.093460,312.883606 115.106430,437.539490 
	C115.107201,444.975739 117.943665,447.975220 125.285294,447.976929 
	C193.612289,447.992950 261.939301,447.953094 331.211273,447.876709 
z"/>
<path fill="#FEFFFF" opacity="1.000000" stroke="none" 
	d="
M330.738770,447.903076 
	C261.939301,447.953094 193.612289,447.992950 125.285294,447.976929 
	C117.943665,447.975220 115.107201,444.975739 115.106430,437.539490 
	C115.093460,312.883606 115.093323,188.227722 115.107010,63.571827 
	C115.107788,56.473255 117.626122,53.855385 124.681221,53.853046 
	C193.008530,53.830410 261.337067,53.615723 329.662689,53.962482 
	C364.668091,54.140141 386.630096,76.769180 386.739014,112.832458 
	C387.017334,204.990311 386.937378,297.149780 386.753113,389.308105 
	C386.709442,411.147705 378.918060,429.340332 359.003235,440.670197 
	C350.409637,445.559174 340.895264,447.092041 330.738770,447.903076 
M250.964859,188.329102 
	C250.506119,192.632462 250.051834,196.936325 249.587921,201.239120 
	C246.055222,234.004517 242.522781,266.769928 238.986099,299.534912 
	C235.467239,332.134796 231.944550,364.734283 228.421310,397.333679 
	C227.312454,407.593658 226.195465,417.852753 225.084137,428.112457 
	C224.726425,431.414917 225.377853,434.309753 229.130630,435.001587 
	C233.030823,435.720581 235.996017,434.250519 237.323822,430.266907 
	C237.584869,429.483673 237.794342,428.664001 237.882843,427.845490 
	C238.938538,418.082275 239.958435,408.315216 241.003845,398.550873 
	C244.476685,366.113525 247.948181,333.675995 251.435211,301.240173 
	C254.957825,268.473541 258.496216,235.708618 262.031677,202.943375 
	C265.209991,173.487671 268.397949,144.033020 271.573120,114.576981 
	C273.053650,100.841721 274.537354,87.106712 275.965454,73.365959 
	C276.282166,70.318626 275.652069,67.562546 272.142792,66.772079 
	C268.411621,65.931625 265.588531,67.381836 263.998291,70.853264 
	C263.458282,72.032074 263.264282,73.413071 263.122833,74.724396 
	C259.070862,112.288895 255.045715,149.856277 250.964859,188.329102 
z"/>
<path fill="#058D8D" opacity="1.000000" stroke="none" 
	d="
M250.990555,187.876160 
	C255.045715,149.856277 259.070862,112.288895 263.122833,74.724396 
	C263.264282,73.413071 263.458282,72.032074 263.998291,70.853264 
	C265.588531,67.381836 268.411621,65.931625 272.142792,66.772079 
	C275.652069,67.562546 276.282166,70.318626 275.965454,73.365959 
	C274.537354,87.106712 273.053650,100.841721 271.573120,114.576981 
	C268.397949,144.033020 265.209991,173.487671 262.031677,202.943375 
	C258.496216,235.708618 254.957825,268.473541 251.435211,301.240173 
	C247.948181,333.675995 244.476685,366.113525 241.003845,398.550873 
	C239.958435,408.315216 238.938538,418.082275 237.882843,427.845490 
	C237.794342,428.664001 237.584869,429.483673 237.323822,430.266907 
	C235.996017,434.250519 233.030823,435.720581 229.130630,435.001587 
	C225.377853,434.309753 224.726425,431.414917 225.084137,428.112457 
	C226.195465,417.852753 227.312454,407.593658 228.421310,397.333679 
	C231.944550,364.734283 235.467239,332.134796 238.986099,299.534912 
	C242.522781,266.769928 246.055222,234.004517 249.587921,201.239120 
	C250.051834,196.936325 250.506119,192.632462 250.990555,187.876160 
z"/>
</svg>