<svg version="1.1" id="Layer_1" xmlns="http://www.w3.org/2000/svg" xmlns:xlink="http://www.w3.org/1999/xlink" x="0px" y="0px"
	 width="100%" viewBox="0 0 500 500" enable-background="new 0 0 500 500" xml:space="preserve">
<path fill="#00B3B3" opacity="1.000000" stroke="none" 
	d="
M281.000000,501.000000 
	C187.333359,501.000000 94.166710,501.000000 1.000050,501.000000 
	C1.000033,334.333405 1.000033,167.666794 1.000017,1.000139 
	C167.666565,1.000093 334.333130,1.000093 500.999756,1.000046 
	C500.999847,167.666519 500.999847,334.333038 500.999939,500.999786 
	C427.833344,501.000000 354.666656,501.000000 281.000000,501.000000 
M331.210663,447.876221 
	C340.897308,447.091370 350.410858,445.554657 359.008331,440.663239 
	C378.931763,429.328003 386.709167,411.128845 386.752594,389.284851 
	C386.935730,297.133057 387.028778,204.980087 386.733582,112.828873 
	C386.617920,76.728806 364.650787,54.138748 329.637787,53.962135 
	C261.316986,53.617516 192.993332,53.830265 124.670868,53.854992 
	C117.623627,53.857540 115.109108,56.483452 115.108253,63.596554 
	C115.093292,188.243591 115.092949,312.890625 115.106926,437.537659 
	C115.107758,444.968475 117.954277,447.973541 125.299263,447.975433 
	C193.621414,447.992981 261.943573,447.952515 331.210663,447.876221 
z"/>
<path fill="#000000" opacity="1.000000" stroke="none" 
	d="
M330.738190,447.902557 
	C261.943573,447.952515 193.621414,447.992981 125.299263,447.975433 
	C117.954277,447.973541 115.107758,444.968475 115.106926,437.537659 
	C115.092949,312.890625 115.093292,188.243591 115.108253,63.596554 
	C115.109108,56.483452 117.623627,53.857540 124.670868,53.854992 
	C192.993332,53.830265 261.316986,53.617516 329.637787,53.962135 
	C364.650787,54.138748 386.617920,76.728806 386.733582,112.828873 
	C387.028778,204.980087 386.935730,297.133057 386.752594,389.284851 
	C386.709167,411.128845 378.931763,429.328003 359.008331,440.663239 
	C350.410858,445.554657 340.897308,447.091370 330.738190,447.902557 
M250.962845,188.328506 
	C247.238434,223.102631 243.539490,257.879486 239.782181,292.650085 
	C236.275406,325.102356 232.700256,357.547180 229.168274,389.996735 
	C227.798737,402.579346 226.468079,415.166138 225.113144,427.750336 
	C224.741592,431.201263 225.231903,434.182983 229.284378,435.059143 
	C233.062485,435.876038 236.440399,433.623383 237.551697,429.625092 
	C237.729034,428.987122 237.832123,428.321716 237.902588,427.661835 
	C238.946091,417.891876 239.964508,408.119202 241.015640,398.350098 
	C244.525436,365.730835 248.050888,333.113190 251.561020,300.493958 
	C255.053375,268.039825 258.527710,235.583801 262.022369,203.129944 
	C265.534760,170.511078 269.065002,137.894104 272.581879,105.275719 
	C273.724487,94.678574 274.880920,84.082764 275.964203,73.479515 
	C276.298309,70.208908 275.556000,67.323761 271.743896,66.694382 
	C267.988434,66.074348 265.243256,67.663956 263.850952,71.255997 
	C263.436646,72.324913 263.252014,73.510384 263.128052,74.660332 
	C259.076385,112.246368 255.044998,149.834595 250.962845,188.328506 
z"/>
<path fill="#00AFAF" opacity="1.000000" stroke="none" 
	d="
M250.986725,187.875488 
	C255.044998,149.834595 259.076385,112.246368 263.128052,74.660332 
	C263.252014,73.510384 263.436646,72.324913 263.850952,71.255997 
	C265.243256,67.663956 267.988434,66.074348 271.743896,66.694382 
	C275.556000,67.323761 276.298309,70.208908 275.964203,73.479515 
	C274.880920,84.082764 273.724487,94.678574 272.581879,105.275719 
	C269.065002,137.894104 265.534760,170.511078 262.022369,203.129944 
	C258.527710,235.583801 255.053375,268.039825 251.561020,300.493958 
	C248.050888,333.113190 244.525436,365.730835 241.015640,398.350098 
	C239.964508,408.119202 238.946091,417.891876 237.902588,427.661835 
	C237.832123,428.321716 237.729034,428.987122 237.551697,429.625092 
	C236.440399,433.623383 233.062485,435.876038 229.284378,435.059143 
	C225.231903,434.182983 224.741592,431.201263 225.113144,427.750336 
	C226.468079,415.166138 227.798737,402.579346 229.168274,389.996735 
	C232.700256,357.547180 236.275406,325.102356 239.782181,292.650085 
	C243.539490,257.879486 247.238434,223.102631 250.986725,187.875488 
z"/>
</svg>